<svg xmlns="http://www.w3.org/2000/svg" viewBox="0 0 40 40">
  <defs>
    <style>
      .cls-1 {
        fill: #2ecc71;
      }

      .cls-2 {
        fill: #fff;
      }
    </style>
  </defs>
  <g id="Check" transform="translate(-473 -3958)">
    <circle id="Ellipse_107" data-name="Ellipse 107" class="cls-1" cx="20" cy="20" r="20" transform="translate(473 3958)"/>
    <g id="icons8-checkmark" transform="translate(479.945 3965.676)">
      <path id="Path_2049" data-name="Path 2049" class="cls-2" d="M22.566,4.73,20.773,3.512a1.088,1.088,0,0,0-1.508.285L10.477,16.758,6.438,12.719a1.085,1.085,0,0,0-1.531,0L3.371,14.254a1.089,1.089,0,0,0,0,1.535L9.582,22a2.107,2.107,0,0,0,1.387.613,1.668,1.668,0,0,0,1.309-.773L22.855,6.234A1.082,1.082,0,0,0,22.566,4.73Z"/>
    </g>
  </g>
</svg>
