<svg xmlns="http://www.w3.org/2000/svg" viewBox="0 0 646.665 551.667">
  <defs>
    <style>
      .cls-1 {
        opacity: 0.05;
      }
    </style>
  </defs>
  <g id="Doodle" class="cls-1" transform="translate(-1551.811 -1484.635)">
    <g id="icons8-australia_country" transform="translate(2043.915 1484.635)">
      <path id="Path_252" data-name="Path 252" d="M112.887,4A5.415,5.415,0,0,0,109.3,5.525,6.2,6.2,0,0,0,107.865,8a15.914,15.914,0,0,0-.734,4.662c-.158,3.151.014,6.648-.13,8.346-.374,4.446-1.324,10.317-2.72,12.044-.676-.576-1.482-1.252-1.684-1.453l-.144-.144-.173-.115c-3.3-2.648-6.4-4.95-8.734-7.209a6.029,6.029,0,0,0,.374-1.712,5.43,5.43,0,0,0-.144-.619c.259-.1.2.014.5-.13l.187-.115.2-.115c2.2-1.482,3.813-4.374,2.36-7.31l-.273-.518-.417-.432a5.693,5.693,0,0,0-4.461-1.813c-3.453-.36-7.108-.187-8.936-.619-.59-.4-1.022-1.166-1.612-1.353a9.13,9.13,0,0,0-3.914-.3,12.54,12.54,0,0,0-3.079.748c-.043.014-.086.043-.13.058-.417-.259-.863-.547-1.439-.835A5.824,5.824,0,0,0,71.5,8.547a5.605,5.605,0,0,0-2.36.2,4.573,4.573,0,0,0-1.9.633,4.9,4.9,0,0,0-1.554,2.245,6.7,6.7,0,0,0-.317,2.691v.014a10.844,10.844,0,0,0-4.806,5.7c-.058.2,0,.417-.058.633a11.445,11.445,0,0,0-5.468-2.274l-.173-.029h-.187a11.994,11.994,0,0,0-8.346,3.54,14.707,14.707,0,0,0-3.684,4.907,5.285,5.285,0,0,0-2.518-.935,5.09,5.09,0,0,0-2.489.849,5.954,5.954,0,0,0-2.662,3.367l-.2.576v.6c0-.5.029-.187-.345.547l-.115.245-.072.245a33.361,33.361,0,0,1-1.425,3.569,14.149,14.149,0,0,1-1.381,2.36c-1.338,1.338-3.468,1.986-6.144,2.748l-.072.029-.072.014a89.938,89.938,0,0,0-14.907,6.49,17.643,17.643,0,0,0-4.576,3.238l-.115.1-.086.115C2,55.01,2.723,60.233,4.09,63.859c.345,1.065.648,2,.978,3.281.029.13.029.058.058.072a7.561,7.561,0,0,0-1.842,6.3,8.266,8.266,0,0,0,1.252,2.993l-.245-.389C8.262,83.443,8.09,89.112,6.708,97.9a6.642,6.642,0,0,0-1.353.705,6.263,6.263,0,0,0-2.13,5.454,6.561,6.561,0,0,0,2.3,4.619,9.068,9.068,0,0,0,4.23,2.072l.345.072H12.32a22.911,22.911,0,0,0,8.921-2.259,58.538,58.538,0,0,1,6.705-2.633l.4-.115.345-.173a19.883,19.883,0,0,1,4.921-1.871,52.483,52.483,0,0,1,5.972.043c3.022,0,6.864-.719,9.051-4.36l.058-.13.072-.115a6.415,6.415,0,0,1,.446-.748,13.371,13.371,0,0,0,1.439-.59c3.051-.518,6.317.547,11.324-.36l.173-.043.173-.058a24.412,24.412,0,0,1,6.734-.964,50.694,50.694,0,0,1,6.633.115c.806.216,1.036.173,2.115,2.763l.043.13.058.13c.072.144.288.676.676,1.381a5.463,5.463,0,0,0,2.446,2.475l.36.173.4.1a7.042,7.042,0,0,0,4.417-.417,9.554,9.554,0,0,0,2.763-2.029c-.187.173.921-.187,1.5-.4-.2.5-.187,1.568-.446,1.827a5.349,5.349,0,0,0-.964,1.338,8.213,8.213,0,0,0-2.173,3.7,12.031,12.031,0,0,0-.532,3.453v.791l.331.705a6.46,6.46,0,0,0,4.648,3.5,9.071,9.071,0,0,0,4.274-.518,28.937,28.937,0,0,0,4.936-2.273l.288-.144.259-.216c.144.763.187,1.54.389,2.374a22.4,22.4,0,0,0,1.482,4.446l.072.13a3.82,3.82,0,0,0-.086,2.274A5.833,5.833,0,0,0,105,125.085l.058.029c2.734,2.187,5.54,2.576,7.4,3.209l.576.187h.59c-.489,0,.648.374,2.576.374,1.525,0,4.921.086,8.159.029,1.626-.014,3.209-.072,4.633-.2a8.27,8.27,0,0,0,4.087-1.079,15.082,15.082,0,0,0,4.144-3.511l-.561.46a5.487,5.487,0,0,0,1.914-2.115c.374-.6.662-1.137.921-1.568a1.673,1.673,0,0,1,.245-.345c.2-.058.576.029.763-.014a10.583,10.583,0,0,0,2.245-.978,9.614,9.614,0,0,0,2.014-1.5,4.445,4.445,0,0,0,1.612-3.468,20.8,20.8,0,0,0-.13-4.346,4.974,4.974,0,0,1,.014-1.943c.878-1.914,2.13-3.569,3.4-6.043v-.014c1.137-2.259,2.259-4.5,3.4-6.777l-.173.288c2.331-3.756,2.72-7.382,3.583-9.727,1.64-4.1,1.094-8.562.273-12.5a38.132,38.132,0,0,0-1.482-5.338,11.721,11.721,0,0,0-1.842-3.727,28.658,28.658,0,0,0-2.59-3.4,4.848,4.848,0,0,1-1.166-2.187,10.057,10.057,0,0,0-.2-2.547,6.481,6.481,0,0,0-3.238-4.432l-.245-.115-.23-.072a3.577,3.577,0,0,0-1.957-.144l.043.317c0-.058-.029-.058-.043-.1.029,0-.014-.173-.014-.216h-.043a5.116,5.116,0,0,0-.863-2.446,7.235,7.235,0,0,0-.849-.95c-1.957-1.957-3.338-5.5-7.813-7.972l-.3-.173-.317-.115a5.156,5.156,0,0,1-1.511-.95l-.086-.072-.072-.072c-1.568-1.4-3.238-7.425-3.971-11.54a5.064,5.064,0,0,0-.216-.892c-.115-.331-.23-.633-.36-.95-.259-.648-.576-1.324-.892-1.986s-.648-1.324-.95-1.871c-.144-.288-.288-.518-.432-.763a2.707,2.707,0,0,0-.763-1.007l-.245-.259-.317-.2a5.4,5.4,0,0,0-3.194-.82c-.058.014-.058.029-.1.029-.648-2.518-1.281-5.065-2.245-8-.187-.547-.489-1.453-.878-2.389a7.444,7.444,0,0,0-1.856-3.094L114.412,4ZM77.878,15.6c-.475.935-.719,1.065-.863,1.122a5.435,5.435,0,0,1,1.252-.317,2.432,2.432,0,0,1,.6.014l.532,1.05,1.64.417a19.254,19.254,0,0,0,4.648.36,5.868,5.868,0,0,0-.806,2.331,2.677,2.677,0,0,0,.59,1.54c-.388.432-.82.576-.964,1.439a3.729,3.729,0,0,0,1.022,3.137c3.482,5.022,9.051,7.9,12.159,10.389,1.036.993,2,1.669,2.273,1.943l.259.259.3.2a7.824,7.824,0,0,0,6.533.791l.806-.273,1.8-1.8.086-.072c4.23-4.777,4.23-11.353,4.518-15.713a20.691,20.691,0,0,0,1.166,2.6l.259.259.3.2a5.3,5.3,0,0,0,3.209.806c.2-.014.245-.058.4-.072.086.144.144.259.23.417.273.576.532,1.166.705,1.583a1.466,1.466,0,0,1,.115.317l.029.072c.719,3.971,1.3,11.123,6.274,15.627a10.944,10.944,0,0,0,4.274,2.676l-.619-.273c2.173,1.194,2.993,3.554,6.187,6.749a5.714,5.714,0,0,0,1.842,4.058,4.1,4.1,0,0,0,3.64,1.151,9.441,9.441,0,0,1,.072,1.022v.4l.086.4a12.814,12.814,0,0,0,2.676,5.31,22.863,22.863,0,0,1,2.13,2.72l.158.245.173.23c-.3-.374.331.6.748,1.77a31.738,31.738,0,0,1,1.194,4.317c.662,3.223.662,6.878.086,8.3l-.014.029v.029c-1.324,3.525-1.7,6.446-2.979,8.518l-.086.144-.072.144c-1.137,2.259-2.259,4.518-3.4,6.777a70.766,70.766,0,0,0-3.727,6.734l-.1.216-.058.216a12.246,12.246,0,0,0-.245,5.007,15.532,15.532,0,0,1,.086,2.058,3.141,3.141,0,0,1-.475.216H138.3a4.924,4.924,0,0,0-3.741,1.784,10.053,10.053,0,0,0-1.41,1.971c-.345.576-.619,1.094-.82,1.381-.086.158-.187.245-.187.23l-.13.13c-1.4,1.4-1.755,1.957-2.345,2.259l-.144.072-.115.072c.878-.532-.058-.029-1.122.072s-2.532.158-4.029.173c-3.022.058-6.259-.029-8.058-.029a14.12,14.12,0,0,1-1.5-.216,24.131,24.131,0,0,1-4.3-1.655c0-.072.014-.058.014-.144a6.241,6.241,0,0,0-1.094-3.353l.23.389a26.493,26.493,0,0,1-.921-2.921c-.331-1.338-.532-2.979-.532-2.792a2.914,2.914,0,0,0-.3-1.669,11.64,11.64,0,0,0-.446-1.094,6.546,6.546,0,0,0-.662-1.223,4,4,0,0,0-.719-.849,4.307,4.307,0,0,0-2.3-.921,8.871,8.871,0,0,0-6.561,1.784c-.518.259-1.094.5-1.669.806a1.508,1.508,0,0,1,.115-.158c.043-.072-.086.1-.115.158l-.086.043c3.137-3.3,3.482-7.569,3.54-10.965l-.3-1.525c-.014-.014-.662-1.007-.662-1.022a7.21,7.21,0,0,0-.59-.518,3.765,3.765,0,0,0-.46-.288,3.853,3.853,0,0,0-.921-.345,4.068,4.068,0,0,0-.763-.1,10.155,10.155,0,0,0-1.151-.014,27.96,27.96,0,0,0-2.979.23c-2.144.3-4.59.59-6.907,2.662-1.525-3.223-3.813-5.626-6.561-6.36-2.964-.806-5.425-.374-8.533-.374a31.673,31.673,0,0,0-8.4,1.18c-3.065.547-6.374-.561-11.425.36l-.245.058-.259.072a8.634,8.634,0,0,0-4.748,2.36,7.312,7.312,0,0,0-1.684,2.561,5.738,5.738,0,0,1-2.705.777,34.9,34.9,0,0,0-7.238.058l-.115.029a26.49,26.49,0,0,0-6.677,2.446,63.806,63.806,0,0,0-7.151,2.777,19.652,19.652,0,0,1-4.95,1.381l.273-1.64c1.885-10.864,2.259-19.282-2.964-28.894l-.115-.216-.115-.173a.677.677,0,0,0-.029-.072,7.381,7.381,0,0,0,1.7-6.792c-.4-1.612-.806-2.849-1.18-3.957L11,61.341l-.014-.072c-.835-2.216-.82-4.317.086-5.439A9.008,9.008,0,0,1,13.6,54.075l.043-.014.058-.043a81.705,81.705,0,0,1,13.785-6c2.489-.705,6.159-1.554,9.18-4.576A14.348,14.348,0,0,0,39.5,38.995a36.072,36.072,0,0,0,1.353-3.4c.935.374,1.8.978,2.835.633l.245-.086.23-.115a6.961,6.961,0,0,0,2.13-1.827c.4-.532.662-.921,1.309-1.755,2.043-2.533,2.115-3.784,3.554-4.979l.115-.115.13-.115a5.365,5.365,0,0,1,3.108-1.425,12.909,12.909,0,0,1,3.4,1.655c1.712,1.022,4.245,2.59,7.526,1.856l5.9-1.309L67.46,23.368c.144.187-.13-.288.115-1.065a3.487,3.487,0,0,1,1.9-2.058,4.815,4.815,0,0,0,1.914-1.281,4.111,4.111,0,0,0,.863-1.727.479.479,0,0,0,.086.043,3.969,3.969,0,0,0,1.7.446,3.915,3.915,0,0,0,1.885-.288,4.127,4.127,0,0,0,1.022-.691c.029-.029,0-.014.072-.029h-.058A4.211,4.211,0,0,0,77.878,15.6ZM87.95,24.49c.13.058.245.115.36.173l-.288-.058C87.95,24.562,88.022,24.533,87.95,24.49Zm4.331,1.64-.95.691c.158-.086.187-.23.331-.331C91.893,26.332,91.979,26.433,92.281,26.131ZM42.149,31.268l-.187,1.166c-.1.331-.173.3-.245.345A3.908,3.908,0,0,0,42.149,31.268Zm47.528,72.191a4.4,4.4,0,0,0-.46.432c.043-.058.014-.029.058-.086Zm11.051,7.367c0,.144.058.245.058.389,0-.014-.014-.029-.014-.043C100.742,111.157,100.728,111.43,100.728,110.826Zm38.16,9.727c-.245.1-.173.216-.59.216l-1.166-.187A2.935,2.935,0,0,0,138.888,120.553Zm-21.224,16.058a1.38,1.38,0,0,0-.36,1.108,36.586,36.586,0,0,0,2.576,5.525c1.468,2.95,2.95,5.525,5.9,7.741a1.365,1.365,0,0,0,1.094.36,3.909,3.909,0,0,0,2.216-.734c1.108-1.468,1.108-3.31,1.842-5.151.374-.374.374-.748.748-1.482a8.309,8.309,0,0,0,.36-2.95v-2.576c0-.734-.374-1.842-1.108-1.842s-.734.734-1.468,1.108h-1.842c-1.468.734-3.324.374-4.792,0s-2.95-1.108-4.417-1.108Z" transform="translate(-2.959 -4)"/>
    </g>
    <g id="icons8-kangaroo" transform="matrix(0.985, -0.174, 0.174, 0.985, 1551.811, 1543.564)">
      <path id="Path_253" data-name="Path 253" d="M115.717,0V9.706a18,18,0,0,1,3.185.91,12.585,12.585,0,0,1,3.337,1.82,36.924,36.924,0,0,1,3.943,4.853l1.062,1.365,1.668.607s8.948,2.9,14.256,14.711h-3.64l-1.062.607a6.493,6.493,0,0,1-1.972.607c-1.118.152-1.687.209-2.427-.607l-.758-.91-1.062-.455a8.7,8.7,0,0,0-9.706,2.578c-1.915,2.237-2.73,4.626-3.792,7.128-2.123,4.986-4.36,10.389-7.735,13.194a14.937,14.937,0,0,0-5,10.465,71.843,71.843,0,0,0,0,8.19,6.828,6.828,0,0,1-2.123,5.46c-1.422,1.289-3.829,2.275-7.583,2.275V92.21c5.611,0,10.6-1.649,14.1-4.853a16.908,16.908,0,0,0,5.308-12.588c0-2.559-.19-5.156,0-7.28s.682-3.242,1.517-3.943c6.01-5,8.322-12.114,10.313-16.834a21.9,21.9,0,0,1,2.123-3.943,13.36,13.36,0,0,0,8.19,1.972,9.477,9.477,0,0,0,3.337-1.062h13.346V36.1l-.152-.758c-5.213-17.612-17.517-23.033-20.626-24.266a39.49,39.49,0,0,0-4.7-5.46,19.217,19.217,0,0,0-6.521-4.095A18.015,18.015,0,0,0,115.717,0ZM72.039,9.706c-13.289,0-22.635,7.2-28.209,16.834S35.659,48.1,33.517,59.754s-3.905,23.052-6.673,30.939c-1.384,3.943-3,7.052-4.7,8.8a7.246,7.246,0,0,1-5.915,2.427A12.188,12.188,0,0,1,9.4,100.248c-1.175-.739-1.213-.91-1.213-.91L0,104.494a17.058,17.058,0,0,0,4.246,3.943,21.981,21.981,0,0,0,11.981,3.185,18.03,18.03,0,0,0,12.891-5.46A32.264,32.264,0,0,0,36.1,94.029c3.3-9.4,4.872-21.062,6.976-32.455s4.664-22.522,9.1-30.18,9.782-11.981,19.868-11.981c7.412,0,12.8,3.924,17.744,8.493,2.464,2.275,4.8,4.607,7.128,6.673s4.815,4.246,8.8,4.246c6.047,0,10.446-3.754,12.891-7.128s4.209-6.6,4.7-7.128l-7.128-6.825c-2.787,2.938-3.735,6.029-5.308,8.19s-2.635,3.185-5.156,3.185c.474,0-.645-.246-2.427-1.82s-4.038-4.095-6.825-6.673C90.882,15.488,82.9,9.706,72.039,9.706Zm9.706,47.925v7.28c0,16.266-4.171,21.157-9.706,24.569a30.068,30.068,0,0,1-4.7,2.275,26.3,26.3,0,0,0-.152-18.2A28.974,28.974,0,0,0,59.6,62.939c-2.919-2.635-5.668-4.36-8.948-5l-1.82,9.4a15.269,15.269,0,0,1,4.246,2.73A20.222,20.222,0,0,1,58.238,77.2c2.294,5.668,2.427,12.967-7.28,22.749l-.152.152c-6.275,5.611-6.256,13.706-7.28,19.109a14.776,14.776,0,0,1-1.972,5.611c-.682.891-.967,1.365-3.488,1.365v9.706a14.071,14.071,0,0,0,11.223-5.156,22.239,22.239,0,0,0,3.792-9.706c1.213-6.389,1.934-11.792,4.246-13.8.095-.095.19-.209.3-.3,4.114-3.3,11.716-4.512,19.413-9.251,6.863-4.228,12.4-12.436,13.8-26.389A40.28,40.28,0,0,0,101.157,72.8V63.091A39.44,39.44,0,0,1,88.57,60.512Z" transform="translate(0 0)"/>
    </g>
    <g id="icons8-suitcase" transform="matrix(0.951, 0.309, -0.309, 0.951, 2040.04, 1924.772)">
      <path id="Path_254" data-name="Path 254" d="M38.654,0a4.27,4.27,0,0,0-4.188,4.188V13.4H5.924A5.947,5.947,0,0,0,0,19.327V80.239a5.947,5.947,0,0,0,5.924,5.924H89.813a5.947,5.947,0,0,0,5.924-5.924V19.327A5.947,5.947,0,0,0,89.813,13.4H61.272V4.188A4.27,4.27,0,0,0,57.083,0Zm-.359,3.829c.037-.037.142,0,.359,0H57.083c.426,0,.359-.067.359.359V13.4H38.295V4.188C38.295,3.972,38.257,3.867,38.295,3.829ZM5.924,17.233H89.813a1.9,1.9,0,0,1,2.094,2.094V80.239a1.9,1.9,0,0,1-2.094,2.094H5.924a1.9,1.9,0,0,1-2.094-2.094V19.327A1.9,1.9,0,0,1,5.924,17.233ZM50.74,24.892A10.531,10.531,0,1,0,61.272,35.423,10.556,10.556,0,0,0,50.74,24.892Zm0,3.829a6.7,6.7,0,1,1-6.7,6.7A6.672,6.672,0,0,1,50.74,28.721Zm29.02,13.762a3.232,3.232,0,0,0-1.316.239l-.06-.12L55.527,51.339l-.3.12.06.12a3.226,3.226,0,0,0-2.034,4.188l-.12.06,3.829,10.112.12-.06a3.3,3.3,0,0,0,4.308,2.094v.06l.18-.06,22.977-8.736-.06-.12a3.2,3.2,0,0,0,2.034-4.188l.12-.06L82.812,44.7l-.12.06A3.248,3.248,0,0,0,79.761,42.483Zm-.419,3.889,3.53,9.394-22.438,8.5L56.9,54.929Z" transform="translate(0 0)"/>
    </g>
    <g id="icons8-mailbox_closed_flag_down" transform="translate(1632.668 1943.13) rotate(-24)">
      <path id="Path_255" data-name="Path 255" d="M20.513,0A20.553,20.553,0,0,0,0,20.513V56.98A2.284,2.284,0,0,0,2.279,59.26H45.584V82.052h4.558V59.26H54.7V82.052H59.26V59.26h29.63a2.284,2.284,0,0,0,2.279-2.279V20.513A20.553,20.553,0,0,0,70.656,0Zm0,4.558A15.917,15.917,0,0,1,36.467,20.513V54.7H4.558V20.513A15.917,15.917,0,0,1,20.513,4.558Zm12.821,0H70.656A15.917,15.917,0,0,1,86.61,20.513V54.7H41.026V20.513A20.461,20.461,0,0,0,33.334,4.558ZM54.7,15.955a4.559,4.559,0,1,0,3.917,6.838H70.656v9.117h9.117V18.234H58.619A4.517,4.517,0,0,0,54.7,15.955ZM13.034,22.792a2.3,2.3,0,1,0,.641,4.558H27.351a2.279,2.279,0,1,0,0-4.558H13.034Z" transform="translate(0 0)"/>
    </g>
    <g id="icons8-geo_fence" transform="matrix(0.951, 0.309, -0.309, 0.951, 1950.297, 1590.626)">
      <path id="Path_256" data-name="Path 256" d="M32.82,0A15.151,15.151,0,0,0,17.672,15.147c0,8.363,13.175,29.141,13.175,40.393h3.945c0-11.213,13.175-32.711,13.175-40.393A15.151,15.151,0,0,0,32.82,0Zm0,7.574a7.574,7.574,0,1,1-7.574,7.574A7.576,7.576,0,0,1,32.82,7.574ZM17.278,43.628a1.177,1.177,0,0,0-.158.079,42.086,42.086,0,0,0-11.6,3.471,13.368,13.368,0,0,0-3.787,2.761A6.129,6.129,0,0,0,0,54.042c0,2.4,1.588,4.26,3.471,5.6a24.528,24.528,0,0,0,7.179,3.235A80.1,80.1,0,0,0,32.82,65.639a80.1,80.1,0,0,0,22.169-2.761,24.528,24.528,0,0,0,7.179-3.235c1.884-1.341,3.471-3.205,3.471-5.6A6.3,6.3,0,0,0,63.9,49.86a13.126,13.126,0,0,0-3.787-2.682A42.6,42.6,0,0,0,48.44,43.707a2.525,2.525,0,1,0-.868,4.97,38.9,38.9,0,0,1,10.256,3A8.668,8.668,0,0,1,60.2,53.332c.414.454.394.631.394.71,0,.118-.158.661-1.341,1.5a20.862,20.862,0,0,1-5.759,2.525A75.992,75.992,0,0,1,32.82,60.59a75.992,75.992,0,0,1-20.67-2.525A20.862,20.862,0,0,1,6.39,55.541c-1.183-.838-1.341-1.381-1.341-1.5,0-.079-.02-.256.394-.71A8.832,8.832,0,0,1,7.81,51.675a38.3,38.3,0,0,1,10.177-3,2.549,2.549,0,0,0-.71-5.049Z" transform="translate(0 0)"/>
    </g>
    <g id="icons8-filled_star" transform="matrix(0.966, 0.259, -0.259, 0.966, 1717.584, 1783.958)">
      <path id="Path_257" data-name="Path 257" d="M62.36,22.489a2.515,2.515,0,0,0-2.031-1.716L41.8,18.081,33.5,1.287a2.634,2.634,0,0,0-4.526,0L20.694,18.081,2.164,20.774a2.518,2.518,0,0,0-1.4,4.3L14.176,38.15,11.01,56.6a2.54,2.54,0,0,0,1.006,2.475,2.506,2.506,0,0,0,2.653.187l16.577-8.708,16.568,8.708A2.525,2.525,0,0,0,51.483,56.6L48.317,38.15,61.729,25.073A2.51,2.51,0,0,0,62.36,22.489Z" transform="translate(0 0)"/>
    </g>
    <g id="icons8-filled_star-2" data-name="icons8-filled_star" transform="translate(1763.145 1842.482) rotate(-11)">
      <path id="Path_257-2" data-name="Path 257" d="M36.321,13.1a1.465,1.465,0,0,0-1.183-1L24.345,10.531,19.515.75a1.534,1.534,0,0,0-2.636,0l-4.825,9.782L1.261,12.1a1.467,1.467,0,0,0-.816,2.5L8.257,22.22,6.413,32.967A1.479,1.479,0,0,0,7,34.408a1.46,1.46,0,0,0,1.545.109L18.2,29.446l9.65,5.072a1.471,1.471,0,0,0,2.137-1.551L28.142,22.22,35.953,14.6A1.462,1.462,0,0,0,36.321,13.1Z" transform="translate(0 0)"/>
    </g>
    <g id="icons8-crown" transform="matrix(0.891, -0.454, 0.454, 0.891, 1891.018, 1853.835)">
      <path id="Path_258" data-name="Path 258" d="M35.324,0a7.014,7.014,0,0,0-2.208,13.688L24.727,38.856,11.591,26.6a7.051,7.051,0,1,0-4.526,1.656c.207,0,.359-.1.552-.11l2.98,28.37H60.051l2.98-28.37c.193.014.345.11.552.11A7.095,7.095,0,1,0,59.057,26.6L45.921,38.856,37.532,13.688A7.014,7.014,0,0,0,35.324,0ZM10.6,60.051v7.065a3.539,3.539,0,0,0,3.532,3.532H56.518a3.539,3.539,0,0,0,3.532-3.532V60.051Z" transform="translate(0 0)"/>
    </g>
    <g id="icons8-shark" transform="translate(2022.982 1722.365) rotate(9)">
      <path id="Path_259" data-name="Path 259" d="M19.175,0C16.3,0,14.5.959,15.34,3.835c4.6,15.76,7.67,25.887,7.67,34.515,0,10.666-3.206,15.28-3.835,15.34a13.9,13.9,0,0,0,19.175,0,13.9,13.9,0,0,0,19.175,0,13.941,13.941,0,0,0,9.588,3.835,14.782,14.782,0,0,0,1.918-.12c-.09-18.861-15.835-34.89-23.01-42.066C40.957,10.277,25.722,0,19.175,0ZM0,61.361v7.67a13.9,13.9,0,0,0,19.175,0,13.9,13.9,0,0,0,19.175,0,13.9,13.9,0,0,0,19.175,0,13.9,13.9,0,0,0,19.175,0v-7.67a13.9,13.9,0,0,1-19.175,0,13.9,13.9,0,0,1-19.175,0,13.9,13.9,0,0,1-19.175,0A13.9,13.9,0,0,1,0,61.361Z" transform="translate(0 0)"/>
    </g>
    <g id="icons8-hot_air_balloon_filled" transform="translate(1750.023 1607.349) rotate(-7)">
      <path id="Path_260" data-name="Path 260" d="M42.918,0A42.887,42.887,0,0,0,0,42.918C0,60.59,12.09,72.237,21.932,81.575,27.741,87.128,32.82,91.891,32.82,95.934a2.381,2.381,0,0,0,2.525,2.525H50.492a2.381,2.381,0,0,0,2.525-2.525c0-4.043,5.079-8.806,10.887-14.359,9.842-9.339,21.932-20.986,21.932-38.658A42.887,42.887,0,0,0,42.918,0Zm0,2.525c12.623,0,27.77,17.416,27.77,40.393,0,26.508-20.463,34.338-22.485,50.492H43.076C44.358,79.6,55.541,69.1,55.541,42.918,55.541,19.94,49.732,2.525,42.918,2.525Zm0,0C36.1,2.525,30.295,20.7,30.295,42.918c0,26.222,11.213,36.271,12.465,50.492H37.632C35.61,77,15.147,69.426,15.147,42.918,15.147,20.7,30.295,2.525,42.918,2.525Zm-7.574,98.459a2.381,2.381,0,0,0-2.525,2.525v7.574a4.772,4.772,0,0,0,5.049,5.049h10.1a4.772,4.772,0,0,0,5.049-5.049v-7.574a2.381,2.381,0,0,0-2.525-2.525Z" transform="translate(0 0)"/>
    </g>
    <g id="icons8-like" transform="translate(1836.975 1962.068)">
      <path id="Path_261" data-name="Path 261" d="M36.848,8.841a8.683,8.683,0,0,1,8.717,8.717c0,4.841-9.435,15.486-19.362,23.711C16.276,32.8,6.841,22.152,6.841,17.557a8.683,8.683,0,0,1,8.717-8.717c5.8,0,10.645,7.261,10.645,7.261S30.8,8.841,36.848,8.841m0-4.841A13.063,13.063,0,0,0,26.2,9.569,13.063,13.063,0,0,0,15.557,4,13.533,13.533,0,0,0,2,17.557C2,28.2,26.2,47.565,26.2,47.565s24.2-19.362,24.2-30.008A13.533,13.533,0,0,0,36.848,4Z" transform="translate(-2 -4)"/>
    </g>
    <g id="icons8-like-2" data-name="icons8-like" transform="translate(1843.825 1524.203) rotate(-21)">
      <path id="Path_261-2" data-name="Path 261" d="M34.848,4.841a8.683,8.683,0,0,1,8.717,8.717c0,4.841-9.435,15.486-19.362,23.711C14.276,28.8,4.841,18.152,4.841,13.557a8.683,8.683,0,0,1,8.717-8.717c5.8,0,10.645,7.261,10.645,7.261S28.8,4.841,34.848,4.841m0-4.841A13.063,13.063,0,0,0,24.2,5.569,13.063,13.063,0,0,0,13.557,0,13.533,13.533,0,0,0,0,13.557C0,24.2,24.2,43.565,24.2,43.565s24.2-19.362,24.2-30.008A13.533,13.533,0,0,0,34.848,0Z" transform="translate(0 0)"/>
    </g>
  </g>
</svg>
