<svg xmlns="http://www.w3.org/2000/svg" viewBox="0 0 49.448 49.448">
  <defs>
    <style>
      .cls-1 {
        fill: #fff;
      }
    </style>
  </defs>
  <path id="iconmonstr-facebook-6" class="cls-1" d="M46.718,0H2.73A2.729,2.729,0,0,0,0,2.73V46.72a2.729,2.729,0,0,0,2.73,2.728H26.414V30.3H19.969V22.837h6.445v-5.5c0-6.387,3.9-9.865,9.6-9.865a52.861,52.861,0,0,1,5.759.295v6.676l-3.952,0c-3.1,0-3.7,1.473-3.7,3.632v4.766h7.39L40.55,30.3H34.121V49.448h12.6a2.728,2.728,0,0,0,2.726-2.73V2.73A2.729,2.729,0,0,0,46.718,0Z"/>
</svg>
