<svg xmlns="http://www.w3.org/2000/svg" viewBox="0 0 50.249 55.274">
  <defs>
    <style>
      .cls-1 {
        fill: #2f357e;
      }
    </style>
  </defs>
  <path id="Path_262" data-name="Path 262" class="cls-1" d="M31.125,5A17.593,17.593,0,0,0,21.31,37.191,25.2,25.2,0,0,0,6,60.274h5.025A20.048,20.048,0,0,1,20.6,43.158a11.365,11.365,0,0,0,21.042,0,20.048,20.048,0,0,1,9.579,17.116h5.025a25.2,25.2,0,0,0-15.31-23.083A17.593,17.593,0,0,0,31.125,5Zm0,5.025A12.562,12.562,0,1,1,18.562,22.587,12.524,12.524,0,0,1,31.125,10.025Zm0,30.15a20.062,20.062,0,0,1,5.889.864,6.247,6.247,0,0,1-11.777,0A20.062,20.062,0,0,1,31.125,40.174Z" transform="translate(-6 -5)"/>
</svg>
