<svg xmlns="http://www.w3.org/2000/svg" viewBox="0 0 50.126 64.613">
  <defs>
    <style>
      .cls-1 {
        fill: #2f357e;
      }
    </style>
  </defs>
  <g id="Group_70" data-name="Group 70" transform="translate(-1012 -3122)">
    <g id="icons8-user" transform="translate(1012 3122)">
      <path id="Path_263" data-name="Path 263" class="cls-1" d="M31.063,5a17.55,17.55,0,0,0-9.79,32.112A25.135,25.135,0,0,0,6,60.138h5.013a20,20,0,0,1,9.555-17.074,11.337,11.337,0,0,0,20.99,0,20,20,0,0,1,9.555,17.074h5.013A25.135,25.135,0,0,0,40.853,37.112,17.55,17.55,0,0,0,31.063,5Zm0,5.013A12.531,12.531,0,1,1,18.531,22.544,12.493,12.493,0,0,1,31.063,10.013Zm0,30.075a20.013,20.013,0,0,1,5.874.862,6.232,6.232,0,0,1-11.748,0A20.013,20.013,0,0,1,31.063,40.088Z" transform="translate(-6 -5)"/>
    </g>
    <g id="icons8-tie" transform="translate(1032.05 3157.088)">
      <path id="Path_264" data-name="Path 264" class="cls-1" d="M16.957,6.146l2.68-3.574L18.851,1h-5.89l-.786,1.572,2.68,3.57-3.942,19.39,4.992,4.992L20.9,25.532Zm-.069-3.183-.982,1.308-.982-1.308ZM13.046,24.892l2.86-14.061,2.86,14.061-2.86,2.857Z" transform="translate(-10.914 -1)"/>
    </g>
  </g>
</svg>
