<svg xmlns="http://www.w3.org/2000/svg" viewBox="0 0 58.666 63.999">
  <defs>
    <style>
      .cls-1 {
        fill: #2f357e;
      }
    </style>
  </defs>
  <path id="Path_265" data-name="Path 265" class="cls-1" d="M17,4a9.333,9.333,0,1,0,9.333,9.333A9.371,9.371,0,0,0,17,4Zm0,5.333a4,4,0,1,1-4,4A3.962,3.962,0,0,1,17,9.333ZM37,12v2.667H31.666V20H58.333V46.666H29V52h6.667L29,65.333h5.333l5.333-10.667L45,65.333h5.333L43.666,52h20V14.667H42.333V12ZM15.667,25.333A10.7,10.7,0,0,0,5,36V50l5.333,2.667V68h5.333V49.333l-1.5-.667L10.333,46.75V36a5.291,5.291,0,0,1,5.333-5.333h4.667a5.3,5.3,0,0,1,3.75,1.583l5.667,5.667.833.75h11.75V33.333h-9.5L27.916,28.5c-.021-.021-.062.021-.083,0a10.773,10.773,0,0,0-7.5-3.167Zm2.667,24V68h5.333V49.333Z" transform="translate(-5 -4)"/>
</svg>
