<svg xmlns="http://www.w3.org/2000/svg" viewBox="0 0 52.448 52.448">
  <defs>
    <style>
      .cls-1 {
        fill: #fff;
      }
    </style>
  </defs>
  <path id="iconmonstr-instagram-11_2" class="cls-1" d="M26.224,4.727c7,0,7.832.026,10.6.153,7.107.323,10.426,3.7,10.75,10.75.127,2.764.151,3.595.151,10.6s-.026,7.832-.151,10.6c-.326,7.048-3.636,10.426-10.75,10.75-2.767.127-3.593.153-10.6.153s-7.832-.026-10.6-.153C8.5,47.247,5.2,43.86,4.878,36.821c-.127-2.764-.153-3.593-.153-10.6s.028-7.83.153-10.6C5.2,8.575,8.514,5.2,15.627,4.878c2.767-.125,3.595-.151,10.6-.151Zm0-4.727C19.1,0,18.21.031,15.413.157,5.89.594.6,5.879.16,15.411.031,18.21,0,19.1,0,26.224S.031,34.24.157,37.037c.437,9.524,5.721,14.817,15.254,15.254,2.8.127,3.691.157,10.813.157s8.016-.031,10.813-.157c9.515-.437,14.821-5.721,15.252-15.254.129-2.8.16-3.691.16-10.813s-.031-8.014-.157-10.811C51.863,5.9,46.572.6,37.039.16,34.24.031,33.346,0,26.224,0Zm0,12.758A13.467,13.467,0,1,0,39.69,26.224,13.467,13.467,0,0,0,26.224,12.758Zm0,22.207a8.741,8.741,0,1,1,8.741-8.741A8.74,8.74,0,0,1,26.224,34.965Zm14-25.885a3.147,3.147,0,1,0,3.145,3.147A3.148,3.148,0,0,0,40.223,9.08Z"/>
</svg>
