<svg xmlns="http://www.w3.org/2000/svg" viewBox="0 0 55.015 44.709">
  <defs>
    <style>
      .cls-1 {
        fill: #fff;
      }
    </style>
  </defs>
  <path id="iconmonstr-twitter-1" class="cls-1" d="M55.015,7.541a22.535,22.535,0,0,1-6.483,1.777A11.305,11.305,0,0,0,53.5,3.073a22.61,22.61,0,0,1-7.168,2.739A11.294,11.294,0,0,0,27.093,16.1,32.042,32.042,0,0,1,3.83,4.313a11.3,11.3,0,0,0,3.491,15.07,11.239,11.239,0,0,1-5.11-1.412A11.3,11.3,0,0,0,11.264,29.18a11.313,11.313,0,0,1-5.1.193A11.3,11.3,0,0,0,16.711,37.21,22.694,22.694,0,0,1,0,41.886a31.953,31.953,0,0,0,17.3,5.071c20.956,0,32.8-17.7,32.081-33.573a22.98,22.98,0,0,0,5.632-5.843Z" transform="translate(0 -2.248)"/>
</svg>
